<?xml version="1.0" encoding="UTF-8" standalone="no"?>
<svg
   xmlns:dc="http://purl.org/dc/elements/1.1/"
   xmlns:cc="http://creativecommons.org/ns#"
   xmlns:rdf="http://www.w3.org/1999/02/22-rdf-syntax-ns#"
   xmlns:svg="http://www.w3.org/2000/svg"
   xmlns="http://www.w3.org/2000/svg"
   xmlns:xlink="http://www.w3.org/1999/xlink"
   xmlns:sodipodi="http://sodipodi.sourceforge.net/DTD/sodipodi-0.dtd"
   xmlns:inkscape="http://www.inkscape.org/namespaces/inkscape"
   height="469.926287pt"
   version="1.1"
   viewBox="0 0 771.885406 469.926287"
   width="771.885406pt"
   id="svg8685"
   sodipodi:docname="fatal_car_bar_final.svg"
   inkscape:version="1.0.1 (3bc2e813f5, 2020-09-07)">
  <sodipodi:namedview
     pagecolor="#ffffff"
     bordercolor="#666666"
     borderopacity="1"
     objecttolerance="10"
     gridtolerance="10"
     guidetolerance="10"
     inkscape:pageopacity="0"
     inkscape:pageshadow="2"
     inkscape:window-width="1920"
     inkscape:window-height="1017"
     id="namedview8687"
     showgrid="false"
     inkscape:zoom="1.012456"
     inkscape:cx="464.77739"
     inkscape:cy="289.72983"
     inkscape:window-x="-8"
     inkscape:window-y="-8"
     inkscape:window-maximized="1"
     inkscape:current-layer="axes_1" />
  <metadata
     id="metadata8152">
    <rdf:RDF>
      <cc:Work>
        <dc:type
           rdf:resource="http://purl.org/dc/dcmitype/StillImage" />
        <dc:date>2020-11-03T15:52:13.679170</dc:date>
        <dc:format>image/svg+xml</dc:format>
        <dc:creator>
          <cc:Agent>
            <dc:title>Matplotlib v3.3.2, https://matplotlib.org/</dc:title>
          </cc:Agent>
        </dc:creator>
        <dc:title></dc:title>
      </cc:Work>
    </rdf:RDF>
  </metadata>
  <defs
     id="defs8156">
    <rect
       x="458.53842"
       y="82.225791"
       width="285.93834"
       height="40.001736"
       id="rect9342" />
    <style
       type="text/css"
       id="style8154">*{stroke-linecap:butt;stroke-linejoin:round;}</style>
  </defs>
  <g
     id="figure_1">
    <g
       id="patch_1">
      <path
         d="M 0 469.926287  L 771.885406 469.926287  L 771.885406 0  L 0 0  z "
         style="fill:none;"
         id="path8158" />
    </g>
    <g
       id="axes_1">
      <g
         id="patch_2">
        <path
           d="M 95.085406 418.735312  L 764.685406 418.735312  L 764.685406 38.215312  L 95.085406 38.215312  z "
           style="fill:#ffffff;"
           id="path8161" />
      </g>
      <g
         id="patch_3">
        <path
           clip-path="url(#p1e12f38451)"
           d="M 107.042549 418.735312  L 154.871121 418.735312  L 154.871121 63.795294  L 107.042549 63.795294  z "
           style="fill:#bfbfbf;"
           id="path8164" />
      </g>
      <g
         id="patch_4">
        <path
           clip-path="url(#p1e12f38451)"
           d="M 166.828263 418.735312  L 214.656835 418.735312  L 214.656835 56.335312  L 166.828263 56.335312  z "
           style="fill:#bfbfbf;"
           id="path8167" />
      </g>
      <g
         id="patch_5">
        <path
           clip-path="url(#p1e12f38451)"
           d="M 226.613978 418.735312  L 274.442549 418.735312  L 274.442549 61.911833  L 226.613978 61.911833  z "
           style="fill:#bfbfbf;"
           id="path8170" />
      </g>
      <g
         id="patch_6">
        <path
           clip-path="url(#p1e12f38451)"
           d="M 286.399692 418.735312  L 334.228263 418.735312  L 334.228263 73.111039  L 286.399692 73.111039  z "
           style="fill:#bfbfbf;"
           id="path8173" />
      </g>
      <g
         id="patch_7">
        <path
           clip-path="url(#p1e12f38451)"
           d="M 346.185406 418.735312  L 394.013978 418.735312  L 394.013978 103.237177  L 346.185406 103.237177  z "
           style="fill:#bfbfbf;"
           id="path8176" />
      </g>
      <g
         id="patch_8">
        <path
           clip-path="url(#p1e12f38451)"
           d="M 405.971121 418.735312  L 453.799692 418.735312  L 453.799692 133.797251  L 405.971121 133.797251  z "
           style="fill:#bfbfbf;"
           id="path8179" />
      </g>
      <g
         id="patch_9">
        <path
           clip-path="url(#p1e12f38451)"
           d="M 465.756835 418.735312  L 513.585406 418.735312  L 513.585406 139.022931  L 465.756835 139.022931  z "
           style="fill:#bfbfbf;"
           id="path8182" />
      </g>
      <g
         id="patch_10">
        <path
           clip-path="url(#p1e12f38451)"
           d="M 525.542549 418.735312  L 573.371121 418.735312  L 573.371121 142.983738  L 525.542549 142.983738  z "
           style="fill:#bfbfbf;"
           id="path8185" />
      </g>
      <g
         id="patch_11">
        <path
           clip-path="url(#p1e12f38451)"
           d="M 585.328263 418.735312  L 633.156835 418.735312  L 633.156835 132.467749  L 585.328263 132.467749  z "
           style="fill:#bfbfbf;"
           id="path8188" />
      </g>
      <g
         id="patch_12">
        <path
           clip-path="url(#p1e12f38451)"
           d="M 645.113978 418.735312  L 692.942549 418.735312  L 692.942549 139.8908  L 645.113978 139.8908  z "
           style="fill:#bfbfbf;"
           id="path8191" />
      </g>
      <g
         id="patch_13">
        <path
           clip-path="url(#p1e12f38451)"
           d="M 704.899692 418.735312  L 752.728263 418.735312  L 752.728263 141.238767  L 704.899692 141.238767  z "
           style="fill:#bfbfbf;"
           id="path8194" />
      </g>
      <g
         id="matplotlib.axis_1">
        <g
           id="xtick_1">
          <g
             id="line2d_1">
            <defs
               id="defs8198">
              <path
                 d="M 0 0  L 0 3.5  "
                 id="m9b73b31025"
                 style="stroke:#000000;stroke-width:0.8;" />
            </defs>
            <g
               id="g8202">
              <use
                 style="stroke:#000000;stroke-width:0.8;"
                 x="130.956835"
                 xlink:href="#m9b73b31025"
                 y="418.735312"
                 id="use8200" />
            </g>
          </g>
          <g
             id="text_1">
            <!-- 2004 -->
            <g
               style="fill:#191919;"
               transform="translate(113.141835 436.373125)scale(0.14 -0.14)"
               id="g8218">
              <defs
                 id="defs8208">
                <path
                   d="M 19.1875 8.296875  L 53.609375 8.296875  L 53.609375 0  L 7.328125 0  L 7.328125 8.296875  Q 12.9375 14.109375 22.625 23.890625  Q 32.328125 33.6875 34.8125 36.53125  Q 39.546875 41.84375 41.421875 45.53125  Q 43.3125 49.21875 43.3125 52.78125  Q 43.3125 58.59375 39.234375 62.25  Q 35.15625 65.921875 28.609375 65.921875  Q 23.96875 65.921875 18.8125 64.3125  Q 13.671875 62.703125 7.8125 59.421875  L 7.8125 69.390625  Q 13.765625 71.78125 18.9375 73  Q 24.125 74.21875 28.421875 74.21875  Q 39.75 74.21875 46.484375 68.546875  Q 53.21875 62.890625 53.21875 53.421875  Q 53.21875 48.921875 51.53125 44.890625  Q 49.859375 40.875 45.40625 35.40625  Q 44.1875 33.984375 37.640625 27.21875  Q 31.109375 20.453125 19.1875 8.296875  z "
                   id="DejaVuSans-50" />
                <path
                   d="M 31.78125 66.40625  Q 24.171875 66.40625 20.328125 58.90625  Q 16.5 51.421875 16.5 36.375  Q 16.5 21.390625 20.328125 13.890625  Q 24.171875 6.390625 31.78125 6.390625  Q 39.453125 6.390625 43.28125 13.890625  Q 47.125 21.390625 47.125 36.375  Q 47.125 51.421875 43.28125 58.90625  Q 39.453125 66.40625 31.78125 66.40625  z M 31.78125 74.21875  Q 44.046875 74.21875 50.515625 64.515625  Q 56.984375 54.828125 56.984375 36.375  Q 56.984375 17.96875 50.515625 8.265625  Q 44.046875 -1.421875 31.78125 -1.421875  Q 19.53125 -1.421875 13.0625 8.265625  Q 6.59375 17.96875 6.59375 36.375  Q 6.59375 54.828125 13.0625 64.515625  Q 19.53125 74.21875 31.78125 74.21875  z "
                   id="DejaVuSans-48" />
                <path
                   d="M 37.796875 64.3125  L 12.890625 25.390625  L 37.796875 25.390625  z M 35.203125 72.90625  L 47.609375 72.90625  L 47.609375 25.390625  L 58.015625 25.390625  L 58.015625 17.1875  L 47.609375 17.1875  L 47.609375 0  L 37.796875 0  L 37.796875 17.1875  L 4.890625 17.1875  L 4.890625 26.703125  z "
                   id="DejaVuSans-52" />
              </defs>
              <use
                 xlink:href="#DejaVuSans-50"
                 id="use8210" />
              <use
                 x="63.623047"
                 xlink:href="#DejaVuSans-48"
                 id="use8212" />
              <use
                 x="127.246094"
                 xlink:href="#DejaVuSans-48"
                 id="use8214" />
              <use
                 x="190.869141"
                 xlink:href="#DejaVuSans-52"
                 id="use8216" />
            </g>
          </g>
        </g>
        <g
           id="xtick_2">
          <g
             id="line2d_2">
            <g
               id="g8224">
              <use
                 style="stroke:#000000;stroke-width:0.8;"
                 x="250.528263"
                 xlink:href="#m9b73b31025"
                 y="418.735312"
                 id="use8222" />
            </g>
          </g>
          <g
             id="text_2">
            <!-- 2006 -->
            <g
               style="fill:#191919;"
               transform="translate(232.713263 436.373125)scale(0.14 -0.14)"
               id="g8238">
              <defs
                 id="defs8228">
                <path
                   d="M 33.015625 40.375  Q 26.375 40.375 22.484375 35.828125  Q 18.609375 31.296875 18.609375 23.390625  Q 18.609375 15.53125 22.484375 10.953125  Q 26.375 6.390625 33.015625 6.390625  Q 39.65625 6.390625 43.53125 10.953125  Q 47.40625 15.53125 47.40625 23.390625  Q 47.40625 31.296875 43.53125 35.828125  Q 39.65625 40.375 33.015625 40.375  z M 52.59375 71.296875  L 52.59375 62.3125  Q 48.875 64.0625 45.09375 64.984375  Q 41.3125 65.921875 37.59375 65.921875  Q 27.828125 65.921875 22.671875 59.328125  Q 17.53125 52.734375 16.796875 39.40625  Q 19.671875 43.65625 24.015625 45.921875  Q 28.375 48.1875 33.59375 48.1875  Q 44.578125 48.1875 50.953125 41.515625  Q 57.328125 34.859375 57.328125 23.390625  Q 57.328125 12.15625 50.6875 5.359375  Q 44.046875 -1.421875 33.015625 -1.421875  Q 20.359375 -1.421875 13.671875 8.265625  Q 6.984375 17.96875 6.984375 36.375  Q 6.984375 53.65625 15.1875 63.9375  Q 23.390625 74.21875 37.203125 74.21875  Q 40.921875 74.21875 44.703125 73.484375  Q 48.484375 72.75 52.59375 71.296875  z "
                   id="DejaVuSans-54" />
              </defs>
              <use
                 xlink:href="#DejaVuSans-50"
                 id="use8230" />
              <use
                 x="63.623047"
                 xlink:href="#DejaVuSans-48"
                 id="use8232" />
              <use
                 x="127.246094"
                 xlink:href="#DejaVuSans-48"
                 id="use8234" />
              <use
                 x="190.869141"
                 xlink:href="#DejaVuSans-54"
                 id="use8236" />
            </g>
          </g>
        </g>
        <g
           id="xtick_3">
          <g
             id="line2d_3">
            <g
               id="g8244">
              <use
                 style="stroke:#000000;stroke-width:0.8;"
                 x="370.099692"
                 xlink:href="#m9b73b31025"
                 y="418.735312"
                 id="use8242" />
            </g>
          </g>
          <g
             id="text_3">
            <!-- 2008 -->
            <g
               style="fill:#191919;"
               transform="translate(352.284692 436.373125)scale(0.14 -0.14)"
               id="g8258">
              <defs
                 id="defs8248">
                <path
                   d="M 31.78125 34.625  Q 24.75 34.625 20.71875 30.859375  Q 16.703125 27.09375 16.703125 20.515625  Q 16.703125 13.921875 20.71875 10.15625  Q 24.75 6.390625 31.78125 6.390625  Q 38.8125 6.390625 42.859375 10.171875  Q 46.921875 13.96875 46.921875 20.515625  Q 46.921875 27.09375 42.890625 30.859375  Q 38.875 34.625 31.78125 34.625  z M 21.921875 38.8125  Q 15.578125 40.375 12.03125 44.71875  Q 8.5 49.078125 8.5 55.328125  Q 8.5 64.0625 14.71875 69.140625  Q 20.953125 74.21875 31.78125 74.21875  Q 42.671875 74.21875 48.875 69.140625  Q 55.078125 64.0625 55.078125 55.328125  Q 55.078125 49.078125 51.53125 44.71875  Q 48 40.375 41.703125 38.8125  Q 48.828125 37.15625 52.796875 32.3125  Q 56.78125 27.484375 56.78125 20.515625  Q 56.78125 9.90625 50.3125 4.234375  Q 43.84375 -1.421875 31.78125 -1.421875  Q 19.734375 -1.421875 13.25 4.234375  Q 6.78125 9.90625 6.78125 20.515625  Q 6.78125 27.484375 10.78125 32.3125  Q 14.796875 37.15625 21.921875 38.8125  z M 18.3125 54.390625  Q 18.3125 48.734375 21.84375 45.5625  Q 25.390625 42.390625 31.78125 42.390625  Q 38.140625 42.390625 41.71875 45.5625  Q 45.3125 48.734375 45.3125 54.390625  Q 45.3125 60.0625 41.71875 63.234375  Q 38.140625 66.40625 31.78125 66.40625  Q 25.390625 66.40625 21.84375 63.234375  Q 18.3125 60.0625 18.3125 54.390625  z "
                   id="DejaVuSans-56" />
              </defs>
              <use
                 xlink:href="#DejaVuSans-50"
                 id="use8250" />
              <use
                 x="63.623047"
                 xlink:href="#DejaVuSans-48"
                 id="use8252" />
              <use
                 x="127.246094"
                 xlink:href="#DejaVuSans-48"
                 id="use8254" />
              <use
                 x="190.869141"
                 xlink:href="#DejaVuSans-56"
                 id="use8256" />
            </g>
          </g>
        </g>
        <g
           id="xtick_4">
          <g
             id="line2d_4">
            <g
               id="g8264">
              <use
                 style="stroke:#000000;stroke-width:0.8;"
                 x="489.671121"
                 xlink:href="#m9b73b31025"
                 y="418.735312"
                 id="use8262" />
            </g>
          </g>
          <g
             id="text_4">
            <!-- 2010 -->
            <g
               style="fill:#191919;"
               transform="translate(471.856121 436.373125)scale(0.14 -0.14)"
               id="g8278">
              <defs
                 id="defs8268">
                <path
                   d="M 12.40625 8.296875  L 28.515625 8.296875  L 28.515625 63.921875  L 10.984375 60.40625  L 10.984375 69.390625  L 28.421875 72.90625  L 38.28125 72.90625  L 38.28125 8.296875  L 54.390625 8.296875  L 54.390625 0  L 12.40625 0  z "
                   id="DejaVuSans-49" />
              </defs>
              <use
                 xlink:href="#DejaVuSans-50"
                 id="use8270" />
              <use
                 x="63.623047"
                 xlink:href="#DejaVuSans-48"
                 id="use8272" />
              <use
                 x="127.246094"
                 xlink:href="#DejaVuSans-49"
                 id="use8274" />
              <use
                 x="190.869141"
                 xlink:href="#DejaVuSans-48"
                 id="use8276" />
            </g>
          </g>
        </g>
        <g
           id="xtick_5">
          <g
             id="line2d_5">
            <g
               id="g8284">
              <use
                 style="stroke:#000000;stroke-width:0.8;"
                 x="609.242549"
                 xlink:href="#m9b73b31025"
                 y="418.735312"
                 id="use8282" />
            </g>
          </g>
          <g
             id="text_5">
            <!-- 2012 -->
            <g
               style="fill:#191919;"
               transform="translate(591.427549 436.373125)scale(0.14 -0.14)"
               id="g8295">
              <use
                 xlink:href="#DejaVuSans-50"
                 id="use8287" />
              <use
                 x="63.623047"
                 xlink:href="#DejaVuSans-48"
                 id="use8289" />
              <use
                 x="127.246094"
                 xlink:href="#DejaVuSans-49"
                 id="use8291" />
              <use
                 x="190.869141"
                 xlink:href="#DejaVuSans-50"
                 id="use8293" />
            </g>
          </g>
        </g>
        <g
           id="xtick_6">
          <g
             id="line2d_6">
            <g
               id="g8301">
              <use
                 style="stroke:#000000;stroke-width:0.8;"
                 x="728.813978"
                 xlink:href="#m9b73b31025"
                 y="418.735312"
                 id="use8299" />
            </g>
          </g>
          <g
             id="text_6">
            <!-- 2014 -->
            <g
               style="fill:#191919;"
               transform="translate(710.998978 436.373125)scale(0.14 -0.14)"
               id="g8312">
              <use
                 xlink:href="#DejaVuSans-50"
                 id="use8304" />
              <use
                 x="63.623047"
                 xlink:href="#DejaVuSans-48"
                 id="use8306" />
              <use
                 x="127.246094"
                 xlink:href="#DejaVuSans-49"
                 id="use8308" />
              <use
                 x="190.869141"
                 xlink:href="#DejaVuSans-52"
                 id="use8310" />
            </g>
          </g>
        </g>
        <g
           id="text_7">
          <!-- Year -->
          <g
             style="fill:#4c4c4c;"
             transform="translate(113.742906 459.814725)scale(0.14 -0.14)"
             id="g8330">
            <defs
               id="defs8320">
              <path
                 d="M -0.203125 72.90625  L 10.40625 72.90625  L 30.609375 42.921875  L 50.6875 72.90625  L 61.28125 72.90625  L 35.5 34.71875  L 35.5 0  L 25.59375 0  L 25.59375 34.71875  z "
                 id="DejaVuSans-89" />
              <path
                 d="M 56.203125 29.59375  L 56.203125 25.203125  L 14.890625 25.203125  Q 15.484375 15.921875 20.484375 11.0625  Q 25.484375 6.203125 34.421875 6.203125  Q 39.59375 6.203125 44.453125 7.46875  Q 49.3125 8.734375 54.109375 11.28125  L 54.109375 2.78125  Q 49.265625 0.734375 44.1875 -0.34375  Q 39.109375 -1.421875 33.890625 -1.421875  Q 20.796875 -1.421875 13.15625 6.1875  Q 5.515625 13.8125 5.515625 26.8125  Q 5.515625 40.234375 12.765625 48.109375  Q 20.015625 56 32.328125 56  Q 43.359375 56 49.78125 48.890625  Q 56.203125 41.796875 56.203125 29.59375  z M 47.21875 32.234375  Q 47.125 39.59375 43.09375 43.984375  Q 39.0625 48.390625 32.421875 48.390625  Q 24.90625 48.390625 20.390625 44.140625  Q 15.875 39.890625 15.1875 32.171875  z "
                 id="DejaVuSans-101" />
              <path
                 d="M 34.28125 27.484375  Q 23.390625 27.484375 19.1875 25  Q 14.984375 22.515625 14.984375 16.5  Q 14.984375 11.71875 18.140625 8.90625  Q 21.296875 6.109375 26.703125 6.109375  Q 34.1875 6.109375 38.703125 11.40625  Q 43.21875 16.703125 43.21875 25.484375  L 43.21875 27.484375  z M 52.203125 31.203125  L 52.203125 0  L 43.21875 0  L 43.21875 8.296875  Q 40.140625 3.328125 35.546875 0.953125  Q 30.953125 -1.421875 24.3125 -1.421875  Q 15.921875 -1.421875 10.953125 3.296875  Q 6 8.015625 6 15.921875  Q 6 25.140625 12.171875 29.828125  Q 18.359375 34.515625 30.609375 34.515625  L 43.21875 34.515625  L 43.21875 35.40625  Q 43.21875 41.609375 39.140625 45  Q 35.0625 48.390625 27.6875 48.390625  Q 23 48.390625 18.546875 47.265625  Q 14.109375 46.140625 10.015625 43.890625  L 10.015625 52.203125  Q 14.9375 54.109375 19.578125 55.046875  Q 24.21875 56 28.609375 56  Q 40.484375 56 46.34375 49.84375  Q 52.203125 43.703125 52.203125 31.203125  z "
                 id="DejaVuSans-97" />
              <path
                 d="M 41.109375 46.296875  Q 39.59375 47.171875 37.8125 47.578125  Q 36.03125 48 33.890625 48  Q 26.265625 48 22.1875 43.046875  Q 18.109375 38.09375 18.109375 28.8125  L 18.109375 0  L 9.078125 0  L 9.078125 54.6875  L 18.109375 54.6875  L 18.109375 46.1875  Q 20.953125 51.171875 25.484375 53.578125  Q 30.03125 56 36.53125 56  Q 37.453125 56 38.578125 55.875  Q 39.703125 55.765625 41.0625 55.515625  z "
                 id="DejaVuSans-114" />
            </defs>
            <use
               xlink:href="#DejaVuSans-89"
               id="use8322" />
            <use
               x="47.833984"
               xlink:href="#DejaVuSans-101"
               id="use8324" />
            <use
               x="109.357422"
               xlink:href="#DejaVuSans-97"
               id="use8326" />
            <use
               x="170.636719"
               xlink:href="#DejaVuSans-114"
               id="use8328" />
          </g>
        </g>
      </g>
      <g
         id="matplotlib.axis_2">
        <g
           id="ytick_1">
          <g
             id="line2d_7">
            <defs
               id="defs8335">
              <path
                 d="M 0 0  L -3.5 0  "
                 id="m202f2b32f8"
                 style="stroke:#000000;stroke-width:0.8;" />
            </defs>
            <g
               id="g8339">
              <use
                 style="stroke:#000000;stroke-width:0.8;"
                 x="95.085406"
                 xlink:href="#m202f2b32f8"
                 y="418.735312"
                 id="use8337" />
            </g>
          </g>
          <g
             id="text_8">
            <!-- 0 -->
            <g
               style="fill:#4c4c4c;"
               transform="translate(79.177906 424.054219)scale(0.14 -0.14)"
               id="g8344">
              <use
                 xlink:href="#DejaVuSans-48"
                 id="use8342" />
            </g>
          </g>
        </g>
        <g
           id="ytick_2">
          <g
             id="line2d_8">
            <g
               id="g8350">
              <use
                 style="stroke:#000000;stroke-width:0.8;"
                 x="95.085406"
                 xlink:href="#m202f2b32f8"
                 y="372.57206"
                 id="use8348" />
            </g>
          </g>
          <g
             id="text_9">
            <!-- 5,000 -->
            <g
               style="fill:#4c4c4c;"
               transform="translate(48.006031 377.890966)scale(0.14 -0.14)"
               id="g8367">
              <defs
                 id="defs8355">
                <path
                   d="M 10.796875 72.90625  L 49.515625 72.90625  L 49.515625 64.59375  L 19.828125 64.59375  L 19.828125 46.734375  Q 21.96875 47.46875 24.109375 47.828125  Q 26.265625 48.1875 28.421875 48.1875  Q 40.625 48.1875 47.75 41.5  Q 54.890625 34.8125 54.890625 23.390625  Q 54.890625 11.625 47.5625 5.09375  Q 40.234375 -1.421875 26.90625 -1.421875  Q 22.3125 -1.421875 17.546875 -0.640625  Q 12.796875 0.140625 7.71875 1.703125  L 7.71875 11.625  Q 12.109375 9.234375 16.796875 8.0625  Q 21.484375 6.890625 26.703125 6.890625  Q 35.15625 6.890625 40.078125 11.328125  Q 45.015625 15.765625 45.015625 23.390625  Q 45.015625 31 40.078125 35.4375  Q 35.15625 39.890625 26.703125 39.890625  Q 22.75 39.890625 18.8125 39.015625  Q 14.890625 38.140625 10.796875 36.28125  z "
                   id="DejaVuSans-53" />
                <path
                   d="M 11.71875 12.40625  L 22.015625 12.40625  L 22.015625 4  L 14.015625 -11.625  L 7.71875 -11.625  L 11.71875 4  z "
                   id="DejaVuSans-44" />
              </defs>
              <use
                 xlink:href="#DejaVuSans-53"
                 id="use8357" />
              <use
                 x="63.623047"
                 xlink:href="#DejaVuSans-44"
                 id="use8359" />
              <use
                 x="95.410156"
                 xlink:href="#DejaVuSans-48"
                 id="use8361" />
              <use
                 x="159.033203"
                 xlink:href="#DejaVuSans-48"
                 id="use8363" />
              <use
                 x="222.65625"
                 xlink:href="#DejaVuSans-48"
                 id="use8365" />
            </g>
          </g>
        </g>
        <g
           id="ytick_3">
          <g
             id="line2d_9">
            <g
               id="g8373">
              <use
                 style="stroke:#000000;stroke-width:0.8;"
                 x="95.085406"
                 xlink:href="#m202f2b32f8"
                 y="326.408807"
                 id="use8371" />
            </g>
          </g>
          <g
             id="text_10">
            <!-- 10,000 -->
            <g
               style="fill:#4c4c4c;"
               transform="translate(39.098531 331.727713)scale(0.14 -0.14)"
               id="g8388">
              <use
                 xlink:href="#DejaVuSans-49"
                 id="use8376" />
              <use
                 x="63.623047"
                 xlink:href="#DejaVuSans-48"
                 id="use8378" />
              <use
                 x="127.246094"
                 xlink:href="#DejaVuSans-44"
                 id="use8380" />
              <use
                 x="159.033203"
                 xlink:href="#DejaVuSans-48"
                 id="use8382" />
              <use
                 x="222.65625"
                 xlink:href="#DejaVuSans-48"
                 id="use8384" />
              <use
                 x="286.279297"
                 xlink:href="#DejaVuSans-48"
                 id="use8386" />
            </g>
          </g>
        </g>
        <g
           id="ytick_4">
          <g
             id="line2d_10">
            <g
               id="g8394">
              <use
                 style="stroke:#000000;stroke-width:0.8;"
                 x="95.085406"
                 xlink:href="#m202f2b32f8"
                 y="280.245554"
                 id="use8392" />
            </g>
          </g>
          <g
             id="text_11">
            <!-- 15,000 -->
            <g
               style="fill:#4c4c4c;"
               transform="translate(39.098531 285.56446)scale(0.14 -0.14)"
               id="g8409">
              <use
                 xlink:href="#DejaVuSans-49"
                 id="use8397" />
              <use
                 x="63.623047"
                 xlink:href="#DejaVuSans-53"
                 id="use8399" />
              <use
                 x="127.246094"
                 xlink:href="#DejaVuSans-44"
                 id="use8401" />
              <use
                 x="159.033203"
                 xlink:href="#DejaVuSans-48"
                 id="use8403" />
              <use
                 x="222.65625"
                 xlink:href="#DejaVuSans-48"
                 id="use8405" />
              <use
                 x="286.279297"
                 xlink:href="#DejaVuSans-48"
                 id="use8407" />
            </g>
          </g>
        </g>
        <g
           id="ytick_5">
          <g
             id="line2d_11">
            <g
               id="g8415">
              <use
                 style="stroke:#000000;stroke-width:0.8;"
                 x="95.085406"
                 xlink:href="#m202f2b32f8"
                 y="234.082301"
                 id="use8413" />
            </g>
          </g>
          <g
             id="text_12">
            <!-- 20,000 -->
            <g
               style="fill:#4c4c4c;"
               transform="translate(39.098531 239.401207)scale(0.14 -0.14)"
               id="g8430">
              <use
                 xlink:href="#DejaVuSans-50"
                 id="use8418" />
              <use
                 x="63.623047"
                 xlink:href="#DejaVuSans-48"
                 id="use8420" />
              <use
                 x="127.246094"
                 xlink:href="#DejaVuSans-44"
                 id="use8422" />
              <use
                 x="159.033203"
                 xlink:href="#DejaVuSans-48"
                 id="use8424" />
              <use
                 x="222.65625"
                 xlink:href="#DejaVuSans-48"
                 id="use8426" />
              <use
                 x="286.279297"
                 xlink:href="#DejaVuSans-48"
                 id="use8428" />
            </g>
          </g>
        </g>
        <g
           id="ytick_6">
          <g
             id="line2d_12">
            <g
               id="g8436">
              <use
                 style="stroke:#000000;stroke-width:0.8;"
                 x="95.085406"
                 xlink:href="#m202f2b32f8"
                 y="187.919048"
                 id="use8434" />
            </g>
          </g>
          <g
             id="text_13">
            <!-- 25,000 -->
            <g
               style="fill:#4c4c4c;"
               transform="translate(39.098531 193.237955)scale(0.14 -0.14)"
               id="g8451">
              <use
                 xlink:href="#DejaVuSans-50"
                 id="use8439" />
              <use
                 x="63.623047"
                 xlink:href="#DejaVuSans-53"
                 id="use8441" />
              <use
                 x="127.246094"
                 xlink:href="#DejaVuSans-44"
                 id="use8443" />
              <use
                 x="159.033203"
                 xlink:href="#DejaVuSans-48"
                 id="use8445" />
              <use
                 x="222.65625"
                 xlink:href="#DejaVuSans-48"
                 id="use8447" />
              <use
                 x="286.279297"
                 xlink:href="#DejaVuSans-48"
                 id="use8449" />
            </g>
          </g>
        </g>
        <g
           id="ytick_7">
          <g
             id="line2d_13">
            <g
               id="g8457">
              <use
                 style="stroke:#000000;stroke-width:0.8;"
                 x="95.085406"
                 xlink:href="#m202f2b32f8"
                 y="141.755796"
                 id="use8455" />
            </g>
          </g>
          <g
             id="text_14">
            <!-- 30,000 -->
            <g
               style="fill:#4c4c4c;"
               transform="translate(39.098531 147.074702)scale(0.14 -0.14)"
               id="g8475">
              <defs
                 id="defs8461">
                <path
                   d="M 40.578125 39.3125  Q 47.65625 37.796875 51.625 33  Q 55.609375 28.21875 55.609375 21.1875  Q 55.609375 10.40625 48.1875 4.484375  Q 40.765625 -1.421875 27.09375 -1.421875  Q 22.515625 -1.421875 17.65625 -0.515625  Q 12.796875 0.390625 7.625 2.203125  L 7.625 11.71875  Q 11.71875 9.328125 16.59375 8.109375  Q 21.484375 6.890625 26.8125 6.890625  Q 36.078125 6.890625 40.9375 10.546875  Q 45.796875 14.203125 45.796875 21.1875  Q 45.796875 27.640625 41.28125 31.265625  Q 36.765625 34.90625 28.71875 34.90625  L 20.21875 34.90625  L 20.21875 43.015625  L 29.109375 43.015625  Q 36.375 43.015625 40.234375 45.921875  Q 44.09375 48.828125 44.09375 54.296875  Q 44.09375 59.90625 40.109375 62.90625  Q 36.140625 65.921875 28.71875 65.921875  Q 24.65625 65.921875 20.015625 65.03125  Q 15.375 64.15625 9.8125 62.3125  L 9.8125 71.09375  Q 15.4375 72.65625 20.34375 73.4375  Q 25.25 74.21875 29.59375 74.21875  Q 40.828125 74.21875 47.359375 69.109375  Q 53.90625 64.015625 53.90625 55.328125  Q 53.90625 49.265625 50.4375 45.09375  Q 46.96875 40.921875 40.578125 39.3125  z "
                   id="DejaVuSans-51" />
              </defs>
              <use
                 xlink:href="#DejaVuSans-51"
                 id="use8463" />
              <use
                 x="63.623047"
                 xlink:href="#DejaVuSans-48"
                 id="use8465" />
              <use
                 x="127.246094"
                 xlink:href="#DejaVuSans-44"
                 id="use8467" />
              <use
                 x="159.033203"
                 xlink:href="#DejaVuSans-48"
                 id="use8469" />
              <use
                 x="222.65625"
                 xlink:href="#DejaVuSans-48"
                 id="use8471" />
              <use
                 x="286.279297"
                 xlink:href="#DejaVuSans-48"
                 id="use8473" />
            </g>
          </g>
        </g>
        <g
           id="ytick_8">
          <g
             id="line2d_14">
            <g
               id="g8481">
              <use
                 style="stroke:#000000;stroke-width:0.8;"
                 x="95.085406"
                 xlink:href="#m202f2b32f8"
                 y="95.592543"
                 id="use8479" />
            </g>
          </g>
          <g
             id="text_15">
            <!-- 35,000 -->
            <g
               style="fill:#4c4c4c;"
               transform="translate(39.098531 100.911449)scale(0.14 -0.14)"
               id="g8496">
              <use
                 xlink:href="#DejaVuSans-51"
                 id="use8484" />
              <use
                 x="63.623047"
                 xlink:href="#DejaVuSans-53"
                 id="use8486" />
              <use
                 x="127.246094"
                 xlink:href="#DejaVuSans-44"
                 id="use8488" />
              <use
                 x="159.033203"
                 xlink:href="#DejaVuSans-48"
                 id="use8490" />
              <use
                 x="222.65625"
                 xlink:href="#DejaVuSans-48"
                 id="use8492" />
              <use
                 x="286.279297"
                 xlink:href="#DejaVuSans-48"
                 id="use8494" />
            </g>
          </g>
        </g>
        <g
           id="ytick_9">
          <g
             id="line2d_15">
            <g
               id="g8502">
              <use
                 style="stroke:#000000;stroke-width:0.8;"
                 x="95.085406"
                 xlink:href="#m202f2b32f8"
                 y="49.42929"
                 id="use8500" />
            </g>
          </g>
          <g
             id="text_16">
            <!-- 40,000 -->
            <g
               style="fill:#4c4c4c;"
               transform="translate(39.098531 54.748196)scale(0.14 -0.14)"
               id="g8517">
              <use
                 xlink:href="#DejaVuSans-52"
                 id="use8505" />
              <use
                 x="63.623047"
                 xlink:href="#DejaVuSans-48"
                 id="use8507" />
              <use
                 x="127.246094"
                 xlink:href="#DejaVuSans-44"
                 id="use8509" />
              <use
                 x="159.033203"
                 xlink:href="#DejaVuSans-48"
                 id="use8511" />
              <use
                 x="222.65625"
                 xlink:href="#DejaVuSans-48"
                 id="use8513" />
              <use
                 x="286.279297"
                 xlink:href="#DejaVuSans-48"
                 id="use8515" />
            </g>
          </g>
        </g>
        <g
           id="text_17">
          <!-- Total Fatal Crashes -->
          <g
             style="fill:#4c4c4c;"
             transform="translate(25.005875 184.545094)rotate(-90)scale(0.15 -0.15)"
             id="g8570">
            <defs
               id="defs8530">
              <path
                 d="M -0.296875 72.90625  L 61.375 72.90625  L 61.375 64.59375  L 35.5 64.59375  L 35.5 0  L 25.59375 0  L 25.59375 64.59375  L -0.296875 64.59375  z "
                 id="DejaVuSans-84" />
              <path
                 d="M 30.609375 48.390625  Q 23.390625 48.390625 19.1875 42.75  Q 14.984375 37.109375 14.984375 27.296875  Q 14.984375 17.484375 19.15625 11.84375  Q 23.34375 6.203125 30.609375 6.203125  Q 37.796875 6.203125 41.984375 11.859375  Q 46.1875 17.53125 46.1875 27.296875  Q 46.1875 37.015625 41.984375 42.703125  Q 37.796875 48.390625 30.609375 48.390625  z M 30.609375 56  Q 42.328125 56 49.015625 48.375  Q 55.71875 40.765625 55.71875 27.296875  Q 55.71875 13.875 49.015625 6.21875  Q 42.328125 -1.421875 30.609375 -1.421875  Q 18.84375 -1.421875 12.171875 6.21875  Q 5.515625 13.875 5.515625 27.296875  Q 5.515625 40.765625 12.171875 48.375  Q 18.84375 56 30.609375 56  z "
                 id="DejaVuSans-111" />
              <path
                 d="M 18.3125 70.21875  L 18.3125 54.6875  L 36.8125 54.6875  L 36.8125 47.703125  L 18.3125 47.703125  L 18.3125 18.015625  Q 18.3125 11.328125 20.140625 9.421875  Q 21.96875 7.515625 27.59375 7.515625  L 36.8125 7.515625  L 36.8125 0  L 27.59375 0  Q 17.1875 0 13.234375 3.875  Q 9.28125 7.765625 9.28125 18.015625  L 9.28125 47.703125  L 2.6875 47.703125  L 2.6875 54.6875  L 9.28125 54.6875  L 9.28125 70.21875  z "
                 id="DejaVuSans-116" />
              <path
                 d="M 9.421875 75.984375  L 18.40625 75.984375  L 18.40625 0  L 9.421875 0  z "
                 id="DejaVuSans-108" />
              <path
                 id="DejaVuSans-32" />
              <path
                 d="M 9.8125 72.90625  L 51.703125 72.90625  L 51.703125 64.59375  L 19.671875 64.59375  L 19.671875 43.109375  L 48.578125 43.109375  L 48.578125 34.8125  L 19.671875 34.8125  L 19.671875 0  L 9.8125 0  z "
                 id="DejaVuSans-70" />
              <path
                 d="M 64.40625 67.28125  L 64.40625 56.890625  Q 59.421875 61.53125 53.78125 63.8125  Q 48.140625 66.109375 41.796875 66.109375  Q 29.296875 66.109375 22.65625 58.46875  Q 16.015625 50.828125 16.015625 36.375  Q 16.015625 21.96875 22.65625 14.328125  Q 29.296875 6.6875 41.796875 6.6875  Q 48.140625 6.6875 53.78125 8.984375  Q 59.421875 11.28125 64.40625 15.921875  L 64.40625 5.609375  Q 59.234375 2.09375 53.4375 0.328125  Q 47.65625 -1.421875 41.21875 -1.421875  Q 24.65625 -1.421875 15.125 8.703125  Q 5.609375 18.84375 5.609375 36.375  Q 5.609375 53.953125 15.125 64.078125  Q 24.65625 74.21875 41.21875 74.21875  Q 47.75 74.21875 53.53125 72.484375  Q 59.328125 70.75 64.40625 67.28125  z "
                 id="DejaVuSans-67" />
              <path
                 d="M 44.28125 53.078125  L 44.28125 44.578125  Q 40.484375 46.53125 36.375 47.5  Q 32.28125 48.484375 27.875 48.484375  Q 21.1875 48.484375 17.84375 46.4375  Q 14.5 44.390625 14.5 40.28125  Q 14.5 37.15625 16.890625 35.375  Q 19.28125 33.59375 26.515625 31.984375  L 29.59375 31.296875  Q 39.15625 29.25 43.1875 25.515625  Q 47.21875 21.78125 47.21875 15.09375  Q 47.21875 7.46875 41.1875 3.015625  Q 35.15625 -1.421875 24.609375 -1.421875  Q 20.21875 -1.421875 15.453125 -0.5625  Q 10.6875 0.296875 5.421875 2  L 5.421875 11.28125  Q 10.40625 8.6875 15.234375 7.390625  Q 20.0625 6.109375 24.8125 6.109375  Q 31.15625 6.109375 34.5625 8.28125  Q 37.984375 10.453125 37.984375 14.40625  Q 37.984375 18.0625 35.515625 20.015625  Q 33.0625 21.96875 24.703125 23.78125  L 21.578125 24.515625  Q 13.234375 26.265625 9.515625 29.90625  Q 5.8125 33.546875 5.8125 39.890625  Q 5.8125 47.609375 11.28125 51.796875  Q 16.75 56 26.8125 56  Q 31.78125 56 36.171875 55.265625  Q 40.578125 54.546875 44.28125 53.078125  z "
                 id="DejaVuSans-115" />
              <path
                 d="M 54.890625 33.015625  L 54.890625 0  L 45.90625 0  L 45.90625 32.71875  Q 45.90625 40.484375 42.875 44.328125  Q 39.84375 48.1875 33.796875 48.1875  Q 26.515625 48.1875 22.3125 43.546875  Q 18.109375 38.921875 18.109375 30.90625  L 18.109375 0  L 9.078125 0  L 9.078125 75.984375  L 18.109375 75.984375  L 18.109375 46.1875  Q 21.34375 51.125 25.703125 53.5625  Q 30.078125 56 35.796875 56  Q 45.21875 56 50.046875 50.171875  Q 54.890625 44.34375 54.890625 33.015625  z "
                 id="DejaVuSans-104" />
            </defs>
            <use
               xlink:href="#DejaVuSans-84"
               id="use8532" />
            <use
               x="44.083984"
               xlink:href="#DejaVuSans-111"
               id="use8534" />
            <use
               x="105.265625"
               xlink:href="#DejaVuSans-116"
               id="use8536" />
            <use
               x="144.474609"
               xlink:href="#DejaVuSans-97"
               id="use8538" />
            <use
               x="205.753906"
               xlink:href="#DejaVuSans-108"
               id="use8540" />
            <use
               x="233.537109"
               xlink:href="#DejaVuSans-32"
               id="use8542" />
            <use
               x="265.324219"
               xlink:href="#DejaVuSans-70"
               id="use8544" />
            <use
               x="313.71875"
               xlink:href="#DejaVuSans-97"
               id="use8546" />
            <use
               x="374.998047"
               xlink:href="#DejaVuSans-116"
               id="use8548" />
            <use
               x="414.207031"
               xlink:href="#DejaVuSans-97"
               id="use8550" />
            <use
               x="475.486328"
               xlink:href="#DejaVuSans-108"
               id="use8552" />
            <use
               x="503.269531"
               xlink:href="#DejaVuSans-32"
               id="use8554" />
            <use
               x="535.056641"
               xlink:href="#DejaVuSans-67"
               id="use8556" />
            <use
               x="604.880859"
               xlink:href="#DejaVuSans-114"
               id="use8558" />
            <use
               x="645.994141"
               xlink:href="#DejaVuSans-97"
               id="use8560" />
            <use
               x="707.273438"
               xlink:href="#DejaVuSans-115"
               id="use8562" />
            <use
               x="759.373047"
               xlink:href="#DejaVuSans-104"
               id="use8564" />
            <use
               x="822.751953"
               xlink:href="#DejaVuSans-101"
               id="use8566" />
            <use
               x="884.275391"
               xlink:href="#DejaVuSans-115"
               id="use8568" />
          </g>
        </g>
      </g>
      <g
         id="line2d_16">
        <path
           clip-path="url(#p1e12f38451)"
           d="M 95.085406 141.755796  L 764.685406 141.755796  "
           style="fill:none;stroke:#045a8d;stroke-dasharray:7.4,3.2;stroke-dashoffset:0;stroke-width:2;"
           id="path8574" />
      </g>
      <g
         id="patch_14">
        <path
           d="M 95.085406 418.735312  L 764.685406 418.735312  "
           style="fill:none;stroke:#000000;stroke-linecap:square;stroke-linejoin:miter;stroke-width:0.8;"
           id="path8577" />
      </g>
      <g
         id="text_18">
        <!-- Car crashes continue to soar every year -->
        <g
           style="fill:#045a8d;"
           transform="translate(7.2 23.215312)scale(0.22 -0.22)"
           id="g8675">
          <defs
             id="defs8595">
            <path
               d="M 58.796875 25.09375  L 68.265625 22.703125  Q 65.28125 11.03125 57.546875 4.90625  Q 49.8125 -1.21875 38.625 -1.21875  Q 27.046875 -1.21875 19.796875 3.484375  Q 12.546875 8.203125 8.765625 17.140625  Q 4.984375 26.078125 4.984375 36.328125  Q 4.984375 47.515625 9.25 55.828125  Q 13.53125 64.15625 21.40625 68.46875  Q 29.296875 72.796875 38.765625 72.796875  Q 49.515625 72.796875 56.828125 67.328125  Q 64.15625 61.859375 67.046875 51.953125  L 57.71875 49.75  Q 55.21875 57.5625 50.484375 61.125  Q 45.75 64.703125 38.578125 64.703125  Q 30.328125 64.703125 24.78125 60.734375  Q 19.234375 56.78125 16.984375 50.109375  Q 14.75 43.453125 14.75 36.375  Q 14.75 27.25 17.40625 20.4375  Q 20.0625 13.625 25.671875 10.25  Q 31.296875 6.890625 37.84375 6.890625  Q 45.796875 6.890625 51.3125 11.46875  Q 56.84375 16.0625 58.796875 25.09375  z "
               id="ArialMT-67" />
            <path
               d="M 40.4375 6.390625  Q 35.546875 2.25 31.03125 0.53125  Q 26.515625 -1.171875 21.34375 -1.171875  Q 12.796875 -1.171875 8.203125 3  Q 3.609375 7.171875 3.609375 13.671875  Q 3.609375 17.484375 5.34375 20.625  Q 7.078125 23.78125 9.890625 25.6875  Q 12.703125 27.59375 16.21875 28.5625  Q 18.796875 29.25 24.03125 29.890625  Q 34.671875 31.15625 39.703125 32.90625  Q 39.75 34.71875 39.75 35.203125  Q 39.75 40.578125 37.25 42.78125  Q 33.890625 45.75 27.25 45.75  Q 21.046875 45.75 18.09375 43.578125  Q 15.140625 41.40625 13.71875 35.890625  L 5.125 37.0625  Q 6.296875 42.578125 8.984375 45.96875  Q 11.671875 49.359375 16.75 51.1875  Q 21.828125 53.03125 28.515625 53.03125  Q 35.15625 53.03125 39.296875 51.46875  Q 43.453125 49.90625 45.40625 47.53125  Q 47.359375 45.171875 48.140625 41.546875  Q 48.578125 39.3125 48.578125 33.453125  L 48.578125 21.734375  Q 48.578125 9.46875 49.140625 6.21875  Q 49.703125 2.984375 51.375 0  L 42.1875 0  Q 40.828125 2.734375 40.4375 6.390625  z M 39.703125 26.03125  Q 34.90625 24.078125 25.34375 22.703125  Q 19.921875 21.921875 17.671875 20.9375  Q 15.4375 19.96875 14.203125 18.09375  Q 12.984375 16.21875 12.984375 13.921875  Q 12.984375 10.40625 15.640625 8.0625  Q 18.3125 5.71875 23.4375 5.71875  Q 28.515625 5.71875 32.46875 7.9375  Q 36.421875 10.15625 38.28125 14.015625  Q 39.703125 17 39.703125 22.796875  z "
               id="ArialMT-97" />
            <path
               d="M 6.5 0  L 6.5 51.859375  L 14.40625 51.859375  L 14.40625 44  Q 17.4375 49.515625 20 51.265625  Q 22.5625 53.03125 25.640625 53.03125  Q 30.078125 53.03125 34.671875 50.203125  L 31.640625 42.046875  Q 28.421875 43.953125 25.203125 43.953125  Q 22.3125 43.953125 20.015625 42.21875  Q 17.71875 40.484375 16.75 37.40625  Q 15.28125 32.71875 15.28125 27.15625  L 15.28125 0  z "
               id="ArialMT-114" />
            <path
               id="ArialMT-32" />
            <path
               d="M 40.4375 19  L 49.078125 17.875  Q 47.65625 8.9375 41.8125 3.875  Q 35.984375 -1.171875 27.484375 -1.171875  Q 16.84375 -1.171875 10.375 5.78125  Q 3.90625 12.75 3.90625 25.734375  Q 3.90625 34.125 6.6875 40.421875  Q 9.46875 46.734375 15.15625 49.875  Q 20.84375 53.03125 27.546875 53.03125  Q 35.984375 53.03125 41.359375 48.75  Q 46.734375 44.484375 48.25 36.625  L 39.703125 35.296875  Q 38.484375 40.53125 35.375 43.15625  Q 32.28125 45.796875 27.875 45.796875  Q 21.234375 45.796875 17.078125 41.03125  Q 12.9375 36.28125 12.9375 25.984375  Q 12.9375 15.53125 16.9375 10.796875  Q 20.953125 6.0625 27.390625 6.0625  Q 32.5625 6.0625 36.03125 9.234375  Q 39.5 12.40625 40.4375 19  z "
               id="ArialMT-99" />
            <path
               d="M 3.078125 15.484375  L 11.765625 16.84375  Q 12.5 11.625 15.84375 8.84375  Q 19.1875 6.0625 25.203125 6.0625  Q 31.25 6.0625 34.171875 8.515625  Q 37.109375 10.984375 37.109375 14.3125  Q 37.109375 17.28125 34.515625 19  Q 32.71875 20.171875 25.53125 21.96875  Q 15.875 24.421875 12.140625 26.203125  Q 8.40625 27.984375 6.46875 31.125  Q 4.546875 34.28125 4.546875 38.09375  Q 4.546875 41.546875 6.125 44.5  Q 7.71875 47.46875 10.453125 49.421875  Q 12.5 50.921875 16.03125 51.96875  Q 19.578125 53.03125 23.640625 53.03125  Q 29.734375 53.03125 34.34375 51.265625  Q 38.96875 49.515625 41.15625 46.5  Q 43.359375 43.5 44.1875 38.484375  L 35.59375 37.3125  Q 35.015625 41.3125 32.203125 43.546875  Q 29.390625 45.796875 24.265625 45.796875  Q 18.21875 45.796875 15.625 43.796875  Q 13.03125 41.796875 13.03125 39.109375  Q 13.03125 37.40625 14.109375 36.03125  Q 15.1875 34.625 17.484375 33.6875  Q 18.796875 33.203125 25.25 31.453125  Q 34.578125 28.953125 38.25 27.359375  Q 41.9375 25.78125 44.03125 22.75  Q 46.140625 19.734375 46.140625 15.234375  Q 46.140625 10.84375 43.578125 6.953125  Q 41.015625 3.078125 36.171875 0.953125  Q 31.34375 -1.171875 25.25 -1.171875  Q 15.140625 -1.171875 9.84375 3.03125  Q 4.546875 7.234375 3.078125 15.484375  z "
               id="ArialMT-115" />
            <path
               d="M 6.59375 0  L 6.59375 71.578125  L 15.375 71.578125  L 15.375 45.90625  Q 21.53125 53.03125 30.90625 53.03125  Q 36.671875 53.03125 40.921875 50.75  Q 45.171875 48.484375 47 44.484375  Q 48.828125 40.484375 48.828125 32.859375  L 48.828125 0  L 40.046875 0  L 40.046875 32.859375  Q 40.046875 39.453125 37.1875 42.453125  Q 34.328125 45.453125 29.109375 45.453125  Q 25.203125 45.453125 21.75 43.421875  Q 18.3125 41.40625 16.84375 37.9375  Q 15.375 34.46875 15.375 28.375  L 15.375 0  z "
               id="ArialMT-104" />
            <path
               d="M 42.09375 16.703125  L 51.171875 15.578125  Q 49.03125 7.625 43.21875 3.21875  Q 37.40625 -1.171875 28.375 -1.171875  Q 17 -1.171875 10.328125 5.828125  Q 3.65625 12.84375 3.65625 25.484375  Q 3.65625 38.578125 10.390625 45.796875  Q 17.140625 53.03125 27.875 53.03125  Q 38.28125 53.03125 44.875 45.953125  Q 51.46875 38.875 51.46875 26.03125  Q 51.46875 25.25 51.421875 23.6875  L 12.75 23.6875  Q 13.234375 15.140625 17.578125 10.59375  Q 21.921875 6.0625 28.421875 6.0625  Q 33.25 6.0625 36.671875 8.59375  Q 40.09375 11.140625 42.09375 16.703125  z M 13.234375 30.90625  L 42.1875 30.90625  Q 41.609375 37.453125 38.875 40.71875  Q 34.671875 45.796875 27.984375 45.796875  Q 21.921875 45.796875 17.796875 41.75  Q 13.671875 37.703125 13.234375 30.90625  z "
               id="ArialMT-101" />
            <path
               d="M 3.328125 25.921875  Q 3.328125 40.328125 11.328125 47.265625  Q 18.015625 53.03125 27.640625 53.03125  Q 38.328125 53.03125 45.109375 46.015625  Q 51.90625 39.015625 51.90625 26.65625  Q 51.90625 16.65625 48.90625 10.90625  Q 45.90625 5.171875 40.15625 2  Q 34.421875 -1.171875 27.640625 -1.171875  Q 16.75 -1.171875 10.03125 5.8125  Q 3.328125 12.796875 3.328125 25.921875  z M 12.359375 25.921875  Q 12.359375 15.96875 16.703125 11.015625  Q 21.046875 6.0625 27.640625 6.0625  Q 34.1875 6.0625 38.53125 11.03125  Q 42.875 16.015625 42.875 26.21875  Q 42.875 35.84375 38.5 40.796875  Q 34.125 45.75 27.640625 45.75  Q 21.046875 45.75 16.703125 40.8125  Q 12.359375 35.890625 12.359375 25.921875  z "
               id="ArialMT-111" />
            <path
               d="M 6.59375 0  L 6.59375 51.859375  L 14.5 51.859375  L 14.5 44.484375  Q 20.21875 53.03125 31 53.03125  Q 35.6875 53.03125 39.625 51.34375  Q 43.5625 49.65625 45.515625 46.921875  Q 47.46875 44.1875 48.25 40.4375  Q 48.734375 37.984375 48.734375 31.890625  L 48.734375 0  L 39.9375 0  L 39.9375 31.546875  Q 39.9375 36.921875 38.90625 39.578125  Q 37.890625 42.234375 35.28125 43.8125  Q 32.671875 45.40625 29.15625 45.40625  Q 23.53125 45.40625 19.453125 41.84375  Q 15.375 38.28125 15.375 28.328125  L 15.375 0  z "
               id="ArialMT-110" />
            <path
               d="M 25.78125 7.859375  L 27.046875 0.09375  Q 23.34375 -0.6875 20.40625 -0.6875  Q 15.625 -0.6875 12.984375 0.828125  Q 10.359375 2.34375 9.28125 4.8125  Q 8.203125 7.28125 8.203125 15.1875  L 8.203125 45.015625  L 1.765625 45.015625  L 1.765625 51.859375  L 8.203125 51.859375  L 8.203125 64.703125  L 16.9375 69.96875  L 16.9375 51.859375  L 25.78125 51.859375  L 25.78125 45.015625  L 16.9375 45.015625  L 16.9375 14.703125  Q 16.9375 10.9375 17.40625 9.859375  Q 17.875 8.796875 18.921875 8.15625  Q 19.96875 7.515625 21.921875 7.515625  Q 23.390625 7.515625 25.78125 7.859375  z "
               id="ArialMT-116" />
            <path
               d="M 6.640625 61.46875  L 6.640625 71.578125  L 15.4375 71.578125  L 15.4375 61.46875  z M 6.640625 0  L 6.640625 51.859375  L 15.4375 51.859375  L 15.4375 0  z "
               id="ArialMT-105" />
            <path
               d="M 40.578125 0  L 40.578125 7.625  Q 34.515625 -1.171875 24.125 -1.171875  Q 19.53125 -1.171875 15.546875 0.578125  Q 11.578125 2.34375 9.640625 5  Q 7.71875 7.671875 6.9375 11.53125  Q 6.390625 14.109375 6.390625 19.734375  L 6.390625 51.859375  L 15.1875 51.859375  L 15.1875 23.09375  Q 15.1875 16.21875 15.71875 13.8125  Q 16.546875 10.359375 19.234375 8.375  Q 21.921875 6.390625 25.875 6.390625  Q 29.828125 6.390625 33.296875 8.421875  Q 36.765625 10.453125 38.203125 13.9375  Q 39.65625 17.4375 39.65625 24.078125  L 39.65625 51.859375  L 48.4375 51.859375  L 48.4375 0  z "
               id="ArialMT-117" />
            <path
               d="M 21 0  L 1.265625 51.859375  L 10.546875 51.859375  L 21.6875 20.796875  Q 23.484375 15.765625 25 10.359375  Q 26.171875 14.453125 28.265625 20.21875  L 39.796875 51.859375  L 48.828125 51.859375  L 29.203125 0  z "
               id="ArialMT-118" />
            <path
               d="M 6.203125 -19.96875  L 5.21875 -11.71875  Q 8.109375 -12.5 10.25 -12.5  Q 13.1875 -12.5 14.9375 -11.515625  Q 16.703125 -10.546875 17.828125 -8.796875  Q 18.65625 -7.46875 20.515625 -2.25  Q 20.75 -1.515625 21.296875 -0.09375  L 1.609375 51.859375  L 11.078125 51.859375  L 21.875 21.828125  Q 23.96875 16.109375 25.640625 9.8125  Q 27.15625 15.875 29.25 21.625  L 40.328125 51.859375  L 49.125 51.859375  L 29.390625 -0.875  Q 26.21875 -9.421875 24.46875 -12.640625  Q 22.125 -17 19.09375 -19.015625  Q 16.0625 -21.046875 11.859375 -21.046875  Q 9.328125 -21.046875 6.203125 -19.96875  z "
               id="ArialMT-121" />
          </defs>
          <use
             xlink:href="#ArialMT-67"
             id="use8597" />
          <use
             x="72.216797"
             xlink:href="#ArialMT-97"
             id="use8599" />
          <use
             x="127.832031"
             xlink:href="#ArialMT-114"
             id="use8601" />
          <use
             x="161.132812"
             xlink:href="#ArialMT-32"
             id="use8603" />
          <use
             x="188.916016"
             xlink:href="#ArialMT-99"
             id="use8605" />
          <use
             x="238.916016"
             xlink:href="#ArialMT-114"
             id="use8607" />
          <use
             x="272.216797"
             xlink:href="#ArialMT-97"
             id="use8609" />
          <use
             x="327.832031"
             xlink:href="#ArialMT-115"
             id="use8611" />
          <use
             x="377.832031"
             xlink:href="#ArialMT-104"
             id="use8613" />
          <use
             x="433.447266"
             xlink:href="#ArialMT-101"
             id="use8615" />
          <use
             x="489.0625"
             xlink:href="#ArialMT-115"
             id="use8617" />
          <use
             x="539.0625"
             xlink:href="#ArialMT-32"
             id="use8619" />
          <use
             x="566.845703"
             xlink:href="#ArialMT-99"
             id="use8621" />
          <use
             x="616.845703"
             xlink:href="#ArialMT-111"
             id="use8623" />
          <use
             x="672.460938"
             xlink:href="#ArialMT-110"
             id="use8625" />
          <use
             x="728.076172"
             xlink:href="#ArialMT-116"
             id="use8627" />
          <use
             x="755.859375"
             xlink:href="#ArialMT-105"
             id="use8629" />
          <use
             x="778.076172"
             xlink:href="#ArialMT-110"
             id="use8631" />
          <use
             x="833.691406"
             xlink:href="#ArialMT-117"
             id="use8633" />
          <use
             x="889.306641"
             xlink:href="#ArialMT-101"
             id="use8635" />
          <use
             x="944.921875"
             xlink:href="#ArialMT-32"
             id="use8637" />
          <use
             x="972.705078"
             xlink:href="#ArialMT-116"
             id="use8639" />
          <use
             x="1000.488281"
             xlink:href="#ArialMT-111"
             id="use8641" />
          <use
             x="1056.103516"
             xlink:href="#ArialMT-32"
             id="use8643" />
          <use
             x="1083.886719"
             xlink:href="#ArialMT-115"
             id="use8645" />
          <use
             x="1133.886719"
             xlink:href="#ArialMT-111"
             id="use8647" />
          <use
             x="1189.501953"
             xlink:href="#ArialMT-97"
             id="use8649" />
          <use
             x="1245.117188"
             xlink:href="#ArialMT-114"
             id="use8651" />
          <use
             x="1278.417969"
             xlink:href="#ArialMT-32"
             id="use8653" />
          <use
             x="1306.201172"
             xlink:href="#ArialMT-101"
             id="use8655" />
          <use
             x="1361.816406"
             xlink:href="#ArialMT-118"
             id="use8657" />
          <use
             x="1411.816406"
             xlink:href="#ArialMT-101"
             id="use8659" />
          <use
             x="1467.431641"
             xlink:href="#ArialMT-114"
             id="use8661" />
          <use
             x="1500.732422"
             xlink:href="#ArialMT-121"
             id="use8663" />
          <use
             x="1550.732422"
             xlink:href="#ArialMT-32"
             id="use8665" />
          <use
             x="1578.515625"
             xlink:href="#ArialMT-121"
             id="use8667" />
          <use
             x="1628.515625"
             xlink:href="#ArialMT-101"
             id="use8669" />
          <use
             x="1684.130859"
             xlink:href="#ArialMT-97"
             id="use8671" />
          <use
             x="1739.746094"
             xlink:href="#ArialMT-114"
             id="use8673" />
        </g>
      </g>
      <path
         style="fill:#0044aa;stroke:none;stroke-width:0.349204"
         d="m 97.887893,195.70355 c -1.657437,-0.84729 -2.525388,-2.73565 -2.680963,-5.83283 -0.295935,-5.89148 3.213385,-9.24489 6.86322,-6.5583 1.89134,1.39219 2.64109,6.28695 1.47702,9.64269 -0.96894,2.79321 -3.32933,3.93953 -5.659277,2.74844 z m 3.621107,-1.4475 c 1.52686,-1.68716 1.45605,-8.3981 -0.10508,-9.95923 -0.88317,-0.88317 -2.656844,-0.88317 -3.540016,0 -1.015895,1.0159 -1.537362,4.50963 -1.069521,7.1656 0.465425,2.64227 1.125004,3.44173 2.839528,3.44173 0.811739,0 1.505609,-0.23983 1.875089,-0.6481 z"
         id="path9271"
         transform="scale(0.74999998)" />
      <path
         style="fill:#0044aa;stroke:none;stroke-width:0.349204"
         d="m 109.76082,195.70355 c -1.65744,-0.84729 -2.52539,-2.73565 -2.68096,-5.83283 -0.29594,-5.89148 3.21338,-9.24489 6.86321,-6.5583 1.89135,1.39219 2.6411,6.28695 1.47702,9.64269 -0.96893,2.79321 -3.32932,3.93953 -5.65927,2.74844 z m 3.6211,-1.4475 c 1.52686,-1.68716 1.45606,-8.3981 -0.10508,-9.95923 -0.88317,-0.88317 -2.65684,-0.88317 -3.54001,0 -1.0159,1.0159 -1.53736,4.50963 -1.06952,7.1656 0.46542,2.64227 1.125,3.44173 2.83953,3.44173 0.81173,0 1.50561,-0.23983 1.87508,-0.6481 z"
         id="path9273"
         transform="scale(0.74999998)" />
      <path
         style="fill:#0044aa;stroke:none;stroke-width:0.349204"
         d="m 86.014967,195.70355 c -1.899849,-0.97122 -2.619028,-2.77292 -2.619028,-6.56127 0,-2.53196 0.13815,-3.37799 0.710764,-4.35269 2.11664,-3.60292 6.448034,-2.97103 7.662294,1.11783 1.855999,6.24982 -1.503378,11.96911 -5.75403,9.79613 z m 3.621103,-1.4475 c 1.52686,-1.68716 1.456055,-8.3981 -0.105077,-9.95923 -0.853336,-0.85333 -2.586771,-0.88435 -3.494869,-0.0625 -1.603188,1.45086 -1.719495,8.28774 -0.170113,9.99979 0.804181,0.88861 2.974319,0.90126 3.770059,0.022 z"
         id="path9275"
         transform="scale(0.74999998)" />
      <path
         style="fill:#0044aa;stroke:none;stroke-width:0.349204"
         d="m 77.786152,197.26127 c 0.128441,-0.43214 0.324601,-1.37499 0.435911,-2.09522 0.150488,-0.97374 0.369674,-1.30952 0.854809,-1.30952 0.865765,0 0.846005,1.0452 -0.05308,2.80755 -0.763431,1.49644 -1.62907,1.91414 -1.237644,0.59719 z"
         id="path9277"
         transform="scale(0.74999998)" />
      <path
         style="fill:#0044aa;stroke:none;stroke-width:0.349204"
         d="m 68.205578,195.70355 c -1.899849,-0.97122 -2.619027,-2.77292 -2.619027,-6.56127 0,-2.53196 0.138149,-3.37799 0.710763,-4.35269 2.11664,-3.60292 6.448034,-2.97103 7.662294,1.11783 1.856,6.24982 -1.503378,11.96911 -5.75403,9.79613 z m 3.817251,-1.89152 c 1.370116,-2.25297 1.180302,-8.03368 -0.31282,-9.5268 -0.873554,-0.87356 -2.650976,-0.86585 -3.532137,0.0153 -1.049839,1.04984 -1.58231,4.53278 -1.094217,7.15737 0.497453,2.67492 1.152604,3.44624 2.927197,3.44624 1.135409,0 1.452495,-0.17212 2.011977,-1.09212 z"
         id="path9279"
         transform="scale(0.74999998)" />
      <path
         style="fill:#0044aa;stroke:none;stroke-width:0.349204"
         d="m 56.158051,196.12934 c -0.192062,-0.0641 -0.781344,-0.2118 -1.309514,-0.32829 -0.528171,-0.11649 -0.96031,-0.42092 -0.96031,-0.67651 0,-0.35999 0.58381,-0.42724 2.59079,-0.29844 2.428346,0.15584 2.647298,0.10976 3.492037,-0.73498 0.93707,-0.93707 1.155424,-2.24999 0.559414,-3.36365 -0.392517,-0.73342 -2.097448,-1.41058 -3.551517,-1.41058 -0.611082,0 -0.995502,-0.18512 -0.995502,-0.47938 0,-0.32216 0.591864,-0.53625 1.80464,-0.65278 2.007627,-0.19291 2.735008,-0.83613 2.735008,-2.41857 0,-1.55037 -1.284949,-2.16916 -4.044382,-1.94766 -1.964255,0.15767 -2.262683,0.10553 -2.169365,-0.37903 0.133872,-0.69514 2.692594,-1.25536 4.330368,-0.94811 1.826711,0.34269 3.280194,1.76321 3.280194,3.2058 0,1.24171 -1.244149,2.91996 -2.16665,2.92262 -0.248808,7.4e-4 0.0483,0.3066 0.660247,0.67973 2.074859,1.26513 2.471714,3.42203 0.960152,5.21842 -1.106952,1.31554 -3.700471,2.11683 -5.21561,1.61141 z"
         id="path9281"
         transform="scale(0.74999998)" />
      <path
         style="fill:#003380;stroke:none;stroke-width:0.174602"
         d="m 109.63925,134.29697 c -2.03112,-1.00538 -3.00479,-3.96902 -2.63685,-8.02602 0.32422,-3.57505 1.88299,-5.43052 4.56361,-5.43226 1.90396,-0.001 3.2559,1.04569 3.99752,3.09563 0.47121,1.30252 0.64832,4.77252 0.32755,6.41792 -0.26198,1.34389 -1.11972,2.99539 -1.82856,3.52074 -1.18817,0.8806 -3.12562,1.06632 -4.42327,0.42399 z m 3.12095,-1.24578 c 1.20236,-0.79669 1.86764,-3.29153 1.66442,-6.24177 -0.13353,-1.93852 -0.52318,-3.20094 -1.22406,-3.96573 -0.47292,-0.51604 -0.7158,-0.63315 -1.46182,-0.70483 -1.65609,-0.15913 -2.61376,0.89337 -3.00463,3.30217 -0.36283,2.23598 -0.13133,5.16581 0.50644,6.40928 0.33841,0.65983 0.9566,1.30618 1.40659,1.47068 0.6144,0.22459 1.54653,0.10558 2.11306,-0.2698 z"
         id="path9283"
         transform="scale(0.74999998)" />
      <path
         style="fill:#0044aa;stroke:none;stroke-width:0.174602"
         d=""
         id="path9285"
         transform="scale(0.74999998)" />
      <path
         style="fill:#0044aa;stroke:none;stroke-width:0.174602"
         d="m 97.766326,134.29697 c -2.026953,-1.00332 -3.048262,-4.10445 -2.64685,-8.03696 0.366028,-3.58587 1.899997,-5.41954 4.535222,-5.42132 1.712122,-0.001 2.932782,0.77061 3.690972,2.3336 0.6279,1.29442 0.84121,2.47521 0.84121,4.65666 0,3.63792 -1.08101,5.93258 -3.12524,6.63393 -0.95504,0.32766 -2.450266,0.25238 -3.295314,-0.16591 z m 3.120944,-1.24578 c 1.21167,-0.80286 1.87191,-3.30579 1.65427,-6.27125 -0.14497,-1.97528 -0.51429,-3.17283 -1.21391,-3.93625 -0.47292,-0.51604 -0.7158,-0.63315 -1.461814,-0.70483 -2.101573,-0.20194 -3.184182,1.71254 -3.184182,5.63087 0,2.97301 0.792776,5.0761 2.092584,5.55126 0.614399,0.22459 1.546532,0.10558 2.113052,-0.2698 z"
         id="path9287"
         transform="scale(0.74999998)" />
      <path
         style="fill:#0044aa;stroke:none;stroke-width:0.174602"
         d="m 110.64714,134.50032 c -1.9851,-0.39173 -3.16066,-2.07567 -3.53845,-5.06866 -0.35879,-2.84254 0.29129,-6.01671 1.49697,-7.30931 1.12317,-1.20414 3.36997,-1.54 4.83511,-0.72276 0.84689,0.47238 1.77645,1.68702 2.1121,2.75985 0.11049,0.35313 0.23879,1.7915 0.28512,3.19636 0.0957,2.9021 -0.0722,3.77449 -1.03766,5.39009 -0.43102,0.72129 -0.7694,1.05382 -1.35956,1.33603 -0.91375,0.43695 -1.92905,0.58902 -2.79363,0.4184 z m 2.34245,-1.59036 c 0.94387,-0.82873 1.35912,-2.12675 1.45795,-4.5573 0.12896,-3.17194 -0.49928,-5.33248 -1.7532,-6.02924 -0.64683,-0.35943 -2.10444,-0.28352 -2.63963,0.13746 -1.01952,0.80196 -1.50279,2.50919 -1.50279,5.30885 0,2.80287 0.34844,4.07552 1.40515,5.13223 0.47251,0.47251 0.66346,0.54233 1.48314,0.54233 0.80048,0 1.03157,-0.0797 1.54938,-0.53433 z"
         id="path9289"
         transform="scale(0.74999998)" />
      <path
         style="fill:#0044aa;stroke:none;stroke-width:0.174602"
         d="m 85.8934,134.29697 c -2.033037,-1.00633 -3.090324,-4.21492 -2.654055,-8.05437 0.413591,-3.63988 1.899917,-5.40456 4.552065,-5.40456 1.929566,0 3.377288,1.15285 4.095537,3.26136 0.378036,1.10977 0.535835,4.67487 0.270653,6.11476 -0.255349,1.38649 -1.105713,3.08702 -1.809104,3.61779 -1.219051,0.91988 -3.132649,1.11962 -4.455096,0.46502 z m 3.120945,-1.24578 c 1.211667,-0.80286 1.871906,-3.30579 1.654265,-6.27125 -0.222172,-3.02718 -1.032133,-4.46125 -2.620852,-4.64032 -1.034939,-0.11665 -1.860034,0.26746 -2.379302,1.10765 -1.043965,1.68918 -1.145348,6.7087 -0.173762,8.60304 0.338418,0.65983 0.956609,1.30618 1.406599,1.47068 0.614398,0.22459 1.54653,0.10558 2.113052,-0.2698 z"
         id="path9291"
         transform="scale(0.74999998)" />
      <path
         style="fill:#0044aa;stroke:none;stroke-width:0.174602"
         d="m 77.475785,136.54348 c 0.0016,-0.024 0.157441,-0.63293 0.346211,-1.35317 0.188771,-0.72023 0.344566,-1.64344 0.346212,-2.05157 l 0.003,-0.74206 h 0.873009 0.87301 v 0.69811 c 0,0.48628 -0.225167,1.12102 -0.742058,2.09185 -0.650058,1.22094 -0.801587,1.39416 -1.222213,1.39711 -0.264086,0.002 -0.478809,-0.0163 -0.477163,-0.0403 z"
         id="path9293"
         transform="scale(0.74999998)" />
      <path
         style="fill:#0044aa;stroke:none;stroke-width:0.174602"
         d="m 66.560177,134.43109 -0.873009,-0.2019 -0.05223,-0.80475 -0.05223,-0.80475 1.009638,0.34085 c 1.390266,0.46935 3.815482,0.39272 4.538618,-0.14341 0.915667,-0.67887 1.278372,-1.41311 1.278372,-2.58786 0,-1.33224 -0.404517,-2.1465 -1.32769,-2.67254 -1.138489,-0.64874 -2.607197,-0.68791 -4.565122,-0.12177 l -0.392855,0.1136 v -3.2505 -3.2505 h 3.492037 3.492037 v 0.69841 0.69841 h -2.706328 -2.706329 v 1.74934 1.74935 l 0.480155,-0.13428 c 0.822307,-0.22996 2.600398,-0.0909 3.408617,0.26665 1.726173,0.76356 2.690293,2.46867 2.529376,4.47335 -0.155299,1.9347 -1.231812,3.33649 -2.955341,3.84832 -1.053673,0.31291 -3.319234,0.32965 -4.597719,0.034 z"
         id="path9295"
         transform="scale(0.74999998)" />
      <path
         style="fill:#0044aa;stroke:none;stroke-width:0.174602"
         d="m 54.861853,134.40989 c -0.480155,-0.13848 -0.931937,-0.25524 -1.003961,-0.25948 -0.07202,-0.004 -0.130951,-0.3492 -0.130951,-0.76659 v -0.75887 l 0.91666,0.31667 c 1.26182,0.43591 3.633691,0.43575 4.583298,-3.2e-4 1.040479,-0.47778 1.356315,-0.9265 1.450359,-2.06055 0.161826,-1.95139 -0.866558,-2.84911 -3.263801,-2.84911 h -1.416692 v -0.69841 -0.69841 l 1.091262,-9.8e-4 c 1.41156,-0.001 2.246655,-0.24172 2.815726,-0.8108 0.375547,-0.37554 0.458058,-0.61975 0.458058,-1.3557 0,-1.61607 -0.8541,-2.26276 -2.968231,-2.24744 -0.720233,0.005 -1.765503,0.13008 -2.322823,0.27745 l -1.013309,0.26796 0.053,-0.72474 c 0.053,-0.72471 0.05303,-0.72474 1.013309,-0.9463 1.610593,-0.3716 3.838656,-0.31603 4.825144,0.12034 1.098589,0.48596 1.560752,0.93605 1.915813,1.86576 0.567887,1.487 -0.03956,3.06292 -1.442368,3.74201 l -0.799308,0.38694 0.902475,0.42893 c 1.309998,0.62261 1.844221,1.49551 1.844221,3.01336 0,1.61747 -0.638448,2.65943 -2.081838,3.39761 -0.908248,0.4645 -1.219985,0.52798 -2.787814,0.56771 -1.14445,0.029 -2.072227,-0.0438 -2.638229,-0.20704 z"
         id="path9297"
         transform="scale(0.74999998)" />
      <path
         style="fill:#0044aa;stroke:none;stroke-width:0.174602"
         d="m 59.3142,71.286035 v -1.571416 h -3.055532 -3.055533 v -0.87619 c 0,-0.837786 0.121721,-1.061635 2.777053,-5.107104 l 2.777052,-4.230914 1.064189,-0.05198 1.064188,-0.05198 v 4.460678 4.460679 h 0.96031 0.96031 v 0.698407 0.698408 h -0.96031 -0.96031 v 1.571416 1.571417 H 60.099909 59.3142 Z m 0,-6.63487 c 0,-2.016651 -0.05893,-3.665932 -0.130951,-3.665068 -0.100016,0.0012 -3.860993,5.754086 -4.635625,7.09077 -0.115928,0.200041 0.276756,0.240937 2.313474,0.240937 H 59.3142 Z"
         id="path9299"
         transform="scale(0.74999998)" />
      <path
         style="fill:#0044aa;stroke:none;stroke-width:0.174602"
         d="m 68.588261,72.944558 c -1.401989,-0.437213 -2.507992,-1.887735 -2.995309,-3.928347 -0.323513,-1.354691 -0.282567,-4.542845 0.07624,-5.936463 0.763199,-2.964261 2.943892,-4.382703 5.605231,-3.645948 1.000461,0.276964 2.209565,1.556094 2.703654,2.86024 0.553781,1.461702 0.696083,4.895184 0.280333,6.763903 -0.713601,3.207499 -2.944444,4.736634 -5.670153,3.886615 z m 2.581607,-1.387696 c 1.11553,-0.576862 1.655322,-2.283722 1.659349,-5.246979 0.0048,-3.535092 -0.659714,-5.268988 -2.175811,-5.67723 -1.43453,-0.386279 -2.518165,0.261972 -3.154171,1.886886 -0.337102,0.861251 -0.391831,1.340801 -0.402688,3.528441 -0.01491,3.003717 0.275544,4.25157 1.206221,5.182247 0.506345,0.506346 0.693273,0.579614 1.478754,0.579614 0.494527,0 1.119283,-0.11384 1.388346,-0.252979 z"
         id="path9301"
         transform="scale(0.74999998)" />
      <path
         style="fill:#0044aa;stroke:none;stroke-width:0.174602"
         d="m 77.475785,74.996325 c 0.0016,-0.07202 0.157441,-0.720233 0.346211,-1.440465 0.188771,-0.720233 0.344566,-1.64344 0.346212,-2.051572 l 0.003,-0.742058 h 0.873009 0.87301 v 0.695841 c 0,0.46683 -0.242662,1.18513 -0.737319,2.182523 -0.660584,1.331959 -0.787783,1.486682 -1.222213,1.486682 -0.266692,0 -0.483548,-0.05893 -0.481902,-0.130951 z"
         id="path9303"
         transform="scale(0.74999998)" />
      <path
         style="fill:#0044aa;stroke:none;stroke-width:0.174602"
         d="m 86.397649,72.944558 c -1.402373,-0.437333 -2.512786,-1.893982 -2.991348,-3.924075 -0.322555,-1.3683 -0.283756,-4.558078 0.07226,-5.940735 0.763267,-2.964291 2.943922,-4.382702 5.605255,-3.645948 1.000461,0.276964 2.209564,1.556094 2.703654,2.86024 0.553781,1.461702 0.696083,4.895184 0.280332,6.763903 -0.7136,3.207499 -2.944443,4.736634 -5.670153,3.886615 z m 2.581608,-1.387696 c 1.126613,-0.582594 1.655575,-2.278252 1.664032,-5.33428 0.0096,-3.468737 -0.657897,-5.179936 -2.180494,-5.589929 -1.43453,-0.386279 -2.518165,0.261972 -3.154171,1.886886 -0.337102,0.861251 -0.391831,1.340801 -0.402688,3.528441 -0.01491,3.003717 0.275544,4.25157 1.206221,5.182247 0.506345,0.506346 0.693273,0.579614 1.478754,0.579614 0.494527,0 1.119283,-0.11384 1.388346,-0.252979 z"
         id="path9305"
         transform="scale(0.74999998)" />
      <path
         style="fill:#0044aa;stroke:none;stroke-width:0.174602"
         d="m 98.270575,72.944558 c -1.239072,-0.386407 -2.354782,-1.68531 -2.845115,-3.312269 -0.542634,-1.800491 -0.479413,-5.38725 0.126267,-7.163647 0.87358,-2.56212 2.93387,-3.718945 5.405013,-3.034842 1.00046,0.276964 2.20957,1.556094 2.70366,2.86024 0.55378,1.461702 0.69608,4.895184 0.28033,6.763903 -0.7136,3.207499 -2.94445,4.736634 -5.670155,3.886615 z m 2.701205,-1.464606 c 1.11319,-0.678818 1.77735,-3.307659 1.57533,-6.23536 -0.19757,-2.863295 -0.86702,-4.249938 -2.22883,-4.616636 -2.143896,-0.577291 -3.397028,1.073231 -3.590404,4.728979 -0.163227,3.085784 0.429876,5.412849 1.554309,6.098393 0.743283,0.453164 1.968435,0.464381 2.689595,0.02462 z"
         id="path9307"
         transform="scale(0.74999998)" />
      <path
         style="fill:#0044aa;stroke:none;stroke-width:0.174602"
         d="m 110.1435,72.944558 c -1.26995,-0.396038 -2.49892,-1.880213 -2.8914,-3.491842 -0.27161,-1.115323 -0.39377,-3.267912 -0.26431,-4.657698 0.31773,-3.410953 1.67541,-5.257529 4.04397,-5.500199 1.39191,-0.142608 2.35864,0.191524 3.30018,1.140653 1.17734,1.18682 1.57437,2.374247 1.68564,5.041413 0.14139,3.388828 -0.41625,5.435497 -1.81688,6.668375 -1.14323,1.006318 -2.52221,1.277987 -4.0572,0.799298 z m 2.7012,-1.464606 c 1.11319,-0.678818 1.77736,-3.307659 1.57534,-6.23536 -0.1988,-2.881024 -0.86515,-4.249433 -2.25098,-4.622598 -2.11671,-0.569971 -3.34786,1.063598 -3.56298,4.727579 -0.17577,2.993768 0.45681,5.439681 1.58474,6.127473 0.70731,0.431299 1.94913,0.432659 2.65388,0.0029 z"
         id="path9309"
         transform="scale(0.74999998)" />
      <rect
         style="fill:#3771c8;fill-rule:evenodd;stroke-width:0.75729"
         id="rect9313"
         width="47.778984"
         height="77.321938"
         x="107.04255"
         y="63.795296" />
      <rect
         style="fill:#3771c8;fill-rule:evenodd;stroke-width:0.75"
         id="rect9315"
         width="47.995876"
         height="84.411537"
         x="166.82826"
         y="56.335316" />
      <rect
         style="fill:#3771c8;fill-rule:evenodd;stroke-width:0.75"
         id="rect9317"
         width="47.471992"
         height="78.835014"
         x="226.61398"
         y="61.911831" />
      <rect
         style="fill:#3771c8;fill-rule:evenodd;stroke-width:0.75"
         id="rect9319"
         width="47.318493"
         height="67.635811"
         x="286.39969"
         y="73.111038" />
      <rect
         style="fill:#3771c8;fill-rule:evenodd;stroke-width:0.746024"
         id="rect9321"
         width="47.905781"
         height="37.112999"
         x="346.18539"
         y="103.23717" />
      <rect
         style="fill:#3771c8;fill-rule:evenodd;stroke-width:0.75"
         id="rect9323"
         width="47.381889"
         height="6.5792117"
         x="405.97113"
         y="133.79726" />
      <rect
         style="fill:#3771c8;fill-rule:evenodd;stroke-width:0.444034"
         id="rect9334"
         width="47.911396"
         height="1.7227808"
         x="465.7395"
         y="139.0025" />
      <rect
         style="fill:#3771c8;fill-rule:evenodd;stroke-width:0.75"
         id="rect9336"
         width="47.821678"
         height="8.4359398"
         x="585.32825"
         y="132.46776" />
      <rect
         style="fill:#3771c8;fill-rule:evenodd;stroke-width:0.75"
         id="rect9338"
         width="47.832767"
         height="0.8560496"
         x="645.11395"
         y="139.89081" />
      <text
         xml:space="preserve"
         id="text9340"
         style="font-style:normal;font-weight:normal;font-size:28px;line-height:1.25;font-family:sans-serif;white-space:pre;shape-inside:url(#rect9342);fill:#782121;fill-opacity:1;stroke:none;"
         transform="translate(21.482413,11.852366)"><tspan
           x="458.53906"
           y="107.77181"><tspan
             style="fill:#d45500;stroke-linecap:butt;stroke-linejoin:round">over 30 thousand</tspan></tspan></text>
    </g>
  </g>
  <defs
     id="defs8683">
    <clipPath
       id="p1e12f38451">
      <rect
         height="380.52"
         width="669.6"
         x="95.085406"
         y="38.215312"
         id="rect8680" />
    </clipPath>
  </defs>
</svg>
